<?xml version="1.0" encoding="UTF-8" standalone="no"?>
<!-- Created with Inkscape (http://www.inkscape.org/) -->

<svg
   width="512"
   height="255.99998"
   viewBox="0 0 135.46666 67.733329"
   version="1.1"
   id="svg1"
   xmlns:xlink="http://www.w3.org/1999/xlink"
   xmlns="http://www.w3.org/2000/svg"
   xmlns:svg="http://www.w3.org/2000/svg">
  <defs
     id="defs1">
    <linearGradient
       id="linearGradient9">
      <stop
         style="stop-color:#82ccff;stop-opacity:1;"
         offset="0"
         id="stop9" />
      <stop
         style="stop-color:#82ccff;stop-opacity:0;"
         offset="1"
         id="stop10" />
    </linearGradient>
    <linearGradient
       id="linearGradient6">
      <stop
         style="stop-color:#82ccff;stop-opacity:1;"
         offset="0"
         id="stop6" />
      <stop
         style="stop-color:#82ccff;stop-opacity:0;"
         offset="1"
         id="stop7" />
    </linearGradient>
    <linearGradient
       xlink:href="#linearGradient6"
       id="linearGradient7"
       x1="66.911385"
       y1="39.388165"
       x2="66.911385"
       y2="42.238628"
       gradientUnits="userSpaceOnUse"
       gradientTransform="matrix(1.1625173,0,0,1.2671426,-9.0675061,-11.3851)" />
    <linearGradient
       xlink:href="#linearGradient9"
       id="linearGradient10"
       x1="105.02189"
       y1="19.065716"
       x2="105.02189"
       y2="53.147083"
       gradientUnits="userSpaceOnUse" />
    <linearGradient
       xlink:href="#linearGradient9"
       id="linearGradient10-2"
       x1="105.02189"
       y1="19.065716"
       x2="105.02189"
       y2="53.147083"
       gradientUnits="userSpaceOnUse" />
    <linearGradient
       xlink:href="#linearGradient9"
       id="linearGradient10-5"
       x1="105.02189"
       y1="19.065716"
       x2="105.02189"
       y2="53.147083"
       gradientUnits="userSpaceOnUse" />
  </defs>
  <g
     id="layer1">
    <g
       id="g10"
       transform="translate(-5.668788,-0.27446075)">
      <path
         style="fill:#43b2ff;fill-opacity:1;stroke-width:0.264583"
         d="M 10.830904,42.520244 25.038272,48.20319 V 31.283509 L 10.830904,26.504667 Z"
         id="path4" />
      <path
         style="fill:#0096ff;fill-opacity:1;stroke-width:0.264583"
         d="M 39.471667,42.391086 25.264299,48.074032 V 31.154351 l 14.207368,-4.778842 z"
         id="path4-3" />
      <path
         style="fill:#82ccff;fill-opacity:1;stroke-width:0.264583"
         d="m 10.895483,26.278643 14.207368,4.77884 14.207368,-4.77884 -14.207368,-6.19958 z"
         id="path5" />
    </g>
    <path
       style="fill:url(#linearGradient7);fill-rule:nonzero;stroke-width:0.762206;stroke-dasharray:none"
       d="m 49.048713,42.137264 c 0,0 0.304939,0 0.715404,-0.214553 0.410465,-0.214554 0.926455,-0.643663 1.348556,-1.501878 0.422101,-0.858218 0.750315,-2.145541 0.785223,-4.076526 0.03491,-1.930986 -0.223481,-4.505634 -0.97459,-7.938498 -0.512049,-2.340266 -0.0091,-2.652183 1.004783,-1.947928 1.013807,0.704255 2.538398,2.424682 4.069482,4.149104 1.531085,1.724423 3.068664,3.45284 4.108449,4.173074 1.039783,0.720237 1.581772,0.43229 1.121676,-1.876015 -0.723197,-3.628278 -0.349078,-4.865342 0.578305,-4.887186 0.927383,-0.02184 2.408034,1.171533 3.897903,2.404134 1.489868,1.232598 2.988957,2.504422 3.953216,2.639474 0.96426,0.135051 1.39369,-0.86667 0.744245,-4.181159 -0.586474,-2.993108 -0.303287,-3.661038 0.431726,-3.105086 0.735014,0.555952 1.921853,2.33579 3.142685,4.238219 1.220832,1.902429 2.475658,3.92745 3.346643,4.973774 0.870984,1.046322 1.358128,1.113945 1.043598,-0.898423 -0.643512,-4.117209 -0.462024,-5.672721 0.172187,-5.690059 0.634209,-0.01733 1.72114,1.503498 2.888509,3.538983 1.167371,2.035487 2.41518,4.585624 3.371146,6.626889 0.955967,2.041267 1.620091,3.57366 1.620091,3.57366"
       id="path6" />
    <g
       id="g11"
       transform="matrix(1.1940929,0,0,1.1940929,-5.8349982,-12.260381)">
      <path
         style="fill:url(#linearGradient10);fill-rule:nonzero;stroke-width:0.627999;stroke-dasharray:none"
         d="m 102.5083,51.706205 c 0.34443,-1.722104 1.93737,-4.951051 1.87278,-7.469648 -0.0646,-2.518597 -1.78667,-4.326771 -2.10956,-6.851596 -0.32288,-2.524825 0.75341,-5.766133 0.47356,-8.909004 -0.27986,-3.142871 -1.91583,-6.187122 -2.36787,-7.903018 -0.45205,-1.715896 0.27983,-2.103361 1.57143,-0.446629 1.2916,1.656731 3.14282,5.357519 3.57334,8.521912 0.43051,3.164394 -0.55968,5.792217 0.0216,8.306188 0.58124,2.513972 2.73382,4.913938 2.7338,7.712393 -2e-5,2.798454 -2.15261,5.995213 -3.68098,7.48599 -1.52838,1.490777 -2.43247,1.275517 -2.08805,-0.446588 z"
         id="path7"
         transform="matrix(0.58202823,0,0,0.91163242,42.932027,4.3090055)" />
      <path
         style="fill:url(#linearGradient10-2);fill-rule:nonzero;stroke-width:0.627999;stroke-dasharray:none"
         d="m 102.5083,51.706205 c 0.34443,-1.722104 1.93737,-4.951051 1.87278,-7.469648 -0.0646,-2.518597 -1.78667,-4.326771 -2.10956,-6.851596 -0.32288,-2.524825 0.75341,-5.766133 0.47356,-8.909004 -0.27986,-3.142871 -1.91583,-6.187122 -2.36787,-7.903018 -0.45205,-1.715896 0.27983,-2.103361 1.57143,-0.446629 1.2916,1.656731 3.14282,5.357519 3.57334,8.521912 0.43051,3.164394 -0.55968,5.792217 0.0216,8.306188 0.58124,2.513972 2.73382,4.913938 2.7338,7.712393 -2e-5,2.798454 -2.15261,5.995213 -3.68098,7.48599 -1.52838,1.490777 -2.43247,1.275517 -2.08805,-0.446588 z"
         id="path7-7"
         transform="matrix(0.58202823,0,0,0.91163242,47.253339,7.1181885)" />
      <path
         style="fill:url(#linearGradient10-5);fill-rule:nonzero;stroke-width:0.627999;stroke-dasharray:none"
         d="m 102.5083,51.706205 c 0.34443,-1.722104 1.93737,-4.951051 1.87278,-7.469648 -0.0646,-2.518597 -1.78667,-4.326771 -2.10956,-6.851596 -0.32288,-2.524825 0.75341,-5.766133 0.47356,-8.909004 -0.27986,-3.142871 -1.91583,-6.187122 -2.36787,-7.903018 -0.45205,-1.715896 0.27983,-2.103361 1.57143,-0.446629 1.2916,1.656731 3.14282,5.357519 3.57334,8.521912 0.43051,3.164394 -0.55968,5.792217 0.0216,8.306188 0.58124,2.513972 2.73382,4.913938 2.7338,7.712393 -2e-5,2.798454 -2.15261,5.995213 -3.68098,7.48599 -1.52838,1.490777 -2.43247,1.275517 -2.08805,-0.446588 z"
         id="path7-2"
         transform="matrix(0.58202823,0,0,0.91163242,51.111734,4.3090055)" />
    </g>
  </g>
</svg>
