<svg width="155" height="40" viewBox="0 0 155 40" fill="none" xmlns="http://www.w3.org/2000/svg">
<g opacity="0.05">
<path d="M22.09 11.8138H61.5595C64.8357 11.8138 67.9294 13.3227 69.9464 15.9044L75.6506 23.2057C77.6676 25.7875 80.7613 27.2964 84.0375 27.2964H134.673" stroke="white" stroke-width="3.1303"/>
<path d="M76.7614 14.0667H114.692C117.587 14.0667 120.357 12.8873 122.364 10.8003L125.628 7.40548C127.635 5.31853 130.405 4.1391 133.3 4.1391H153.456" stroke="white" stroke-width="3.1303"/>
<path d="M81.1942 20.2783H116.288" stroke="white" stroke-width="3.1303"/>
<path d="M118.901 17.2538L120.47 15.5939C121.029 15.0027 122.019 15.3463 122.085 16.1545L122.58 22.1918C122.623 22.7088 122.238 23.1649 121.722 23.2107L119.57 23.4015C119.016 23.4506 118.544 23.0101 118.555 22.4537L118.642 17.8854C118.647 17.6504 118.739 17.4251 118.901 17.2538Z" fill="white" stroke="white" stroke-width="3.1303"/>
<path d="M67.286 21.5174L58.3427 25.6513C56.1358 26.6714 54.9802 29.1293 55.6026 31.4796L56.9754 36.6641" stroke="white" stroke-width="3.1303"/>
<path d="M61.0759 28.5357L63.5356 38.0825" stroke="white" stroke-width="3.1303"/>
<path d="M65.9822 27.281L66.7394 30.3069C67.1927 32.118 68.8202 33.3883 70.6871 33.3883H76.6337C78.8812 33.3883 80.7031 35.2103 80.7031 37.4577V37.5713" stroke="white" stroke-width="3.1303"/>
<path d="M71.7486 26.701H71.2239C70.7052 26.701 70.2848 27.1214 70.2848 27.6401V28.5578C70.2848 28.9223 70.4957 29.2539 70.8258 29.4084L71.8132 29.8705C72.111 30.0099 72.4599 29.9834 72.7332 29.8007L72.9703 29.6422C73.3806 29.3679 73.5085 28.8229 73.2632 28.3947L72.5635 27.1733C72.3962 26.8812 72.0853 26.701 71.7486 26.701Z" fill="white" stroke="white" stroke-width="3.1303"/>
<path d="M127.483 12.3885L140.759 25.3548C141.043 25.6323 141.121 26.0585 140.955 26.4193L135.852 37.506" stroke="white" stroke-width="3.1303"/>
<path d="M128.441 30.4184L125.356 36.3769C125.195 36.6886 124.873 36.8842 124.522 36.8842H105.007M90.1818 31.0401L92.8121 37.506" stroke="white" stroke-width="3.1303"/>
<path d="M88.1058 36.875L85.0899 32.897C84.7274 32.4189 83.965 32.6752 83.965 33.2752V37.2532C83.965 37.599 84.2453 37.8793 84.591 37.8793H87.6069C88.1243 37.8793 88.4184 37.2873 88.1058 36.875Z" fill="white" stroke="white" stroke-width="0.31303"/>
<path d="M167.888 2.35001L147.96 32.8223C147.797 33.071 147.833 33.4013 148.045 33.6117L151.608 37.1396" stroke="white" stroke-width="3.1303"/>
<path d="M140.199 13.6934L148.669 22.2825" stroke="white" stroke-width="3.1303"/>
<path d="M135.753 9.72932H153.636C153.842 9.72932 154.034 9.62824 154.151 9.45892L159.894 1.14038" stroke="white" stroke-width="3.1303"/>
<path d="M151.559 17.3467L153.134 15.2314C153.42 14.8472 153.186 14.2973 152.711 14.2366L148.971 13.7589C148.407 13.6868 148.047 14.3444 148.412 14.7812L150.577 17.3742C150.836 17.6848 151.318 17.6714 151.559 17.3467Z" fill="white" stroke="white" stroke-width="3.1303"/>
<path d="M83.5134 10.0019L80.7374 2.78427C80.496 2.1566 81.2791 1.64171 81.7597 2.11213L89.1333 9.32975C89.5342 9.72217 89.2564 10.4032 88.6954 10.4032H84.0977C83.8387 10.4032 83.6064 10.2437 83.5134 10.0019Z" fill="white" stroke="white" stroke-width="0.31303"/>
<path d="M90.6924 0.967743L97.3506 9.43116C97.4099 9.5066 97.5006 9.55064 97.5966 9.55064H112.577C112.834 9.55064 112.982 9.2573 112.828 9.05079L108.073 2.65827" stroke="white" stroke-width="3.1303"/>
<path d="M117.576 0.707642V7.99017" stroke="white" stroke-width="3.1303"/>
<path d="M99.4781 1.25705L101.944 4.98788" stroke="white" stroke-width="3.1303"/>
<path d="M73.4018 2.34283L60.2642 6.89736L42.7471 2.34283M55.6765 19.9102L36.2826 18.8258L39.6194 32.2725H-0.628189M30.6523 25.1154H9.59013L7.92183 9.93371L-3.75623 5.59608M-3.75623 25.1154L2.7084 18.8258M44.8328 25.1154L48.5865 34.875L46.2926 38.1283M15.0121 2.34283L16.4718 18.8258M23.9792 5.59608H36.2826" stroke="white" stroke-width="3.1303"/>
<path d="M31.0688 16.6127H22.9063L21.5826 17.9894L24.2299 21.6603L31.0688 16.6127Z" fill="white" stroke="white" stroke-width="3.1303"/>
<path d="M10.3333 5.94388L4.37646 2.15833L10.3333 3.07603V5.94388Z" fill="white" stroke="white" stroke-width="0.31303"/>
</g>
</svg>
