<?xml version="1.0" encoding="UTF-8" standalone="no"?>
<!DOCTYPE svg PUBLIC "-//W3C//DTD SVG 1.1//EN" "http://www.w3.org/Graphics/SVG/1.1/DTD/svg11.dtd">
<svg width="100%" height="100%" viewBox="0 0 1951 651" version="1.1" xmlns="http://www.w3.org/2000/svg" xmlns:xlink="http://www.w3.org/1999/xlink" xml:space="preserve" xmlns:serif="http://www.serif.com/" style="fill-rule:evenodd;clip-rule:evenodd;stroke-linejoin:round;stroke-miterlimit:2;">
    <g id="B" transform="matrix(0.331901,0,0,0.331901,46.155889,-6.401301)">
        <g>
            <g transform="matrix(7.677795,0,0,7.677795,-18203.226727,-12541.561816)">
                <g>
                    <g transform="matrix(1.626979,0,0,1.626979,-1698.934835,-859.333553)">
                        <path d="M2607.039,1544.503L2609.207,1555.056C2613.402,1555.698 2617.514,1556.8 2621.468,1558.342L2628.622,1550.286C2632.625,1552.106 2636.443,1554.31 2640.021,1556.867L2636.621,1567.09C2639.933,1569.744 2642.943,1572.754 2645.597,1576.066L2655.82,1572.667C2658.377,1576.245 2660.581,1580.062 2662.401,1584.065L2654.346,1591.219C2655.887,1595.174 2656.989,1599.285 2657.631,1603.481L2668.185,1605.648C2668.61,1610.025 2668.61,1614.433 2668.185,1618.81L2657.631,1620.978C2656.989,1625.173 2655.887,1629.285 2654.346,1633.239L2662.401,1640.393C2660.581,1644.397 2658.377,1648.214 2655.82,1651.792L2645.597,1648.393C2642.943,1651.705 2639.933,1654.715 2636.621,1657.369L2640.021,1667.592C2636.443,1670.149 2632.625,1672.353 2628.622,1674.173L2621.468,1666.117C2617.514,1667.659 2613.402,1668.761 2609.207,1669.403L2607.039,1679.956C2602.662,1680.381 2598.254,1680.381 2593.877,1679.956L2591.709,1669.403C2587.514,1668.761 2583.402,1667.659 2579.448,1666.117L2572.294,1674.173C2568.291,1672.353 2564.473,1670.149 2560.895,1667.592L2564.295,1657.369C2560.982,1654.715 2557.972,1651.705 2555.319,1648.393L2545.095,1651.792C2542.539,1648.214 2540.335,1644.397 2538.514,1640.393L2546.57,1633.239C2545.028,1629.285 2543.927,1625.173 2543.285,1620.978L2532.731,1618.81C2532.306,1614.433 2532.306,1610.025 2532.731,1605.648L2543.285,1603.481C2543.927,1599.285 2545.028,1595.174 2546.57,1591.219L2538.514,1584.065C2540.335,1580.062 2542.539,1576.245 2545.095,1572.667L2555.319,1576.066C2557.972,1572.754 2560.982,1569.744 2564.295,1567.09L2560.895,1556.867C2564.473,1554.31 2568.291,1552.106 2572.294,1550.286L2579.448,1558.342C2583.402,1556.8 2587.514,1555.698 2591.709,1555.056L2593.877,1544.503C2598.254,1544.077 2602.662,1544.077 2607.039,1544.503ZM2601.677,1658.853C2602.003,1658.844 2602.318,1658.968 2602.55,1659.196C2602.783,1659.423 2602.913,1659.735 2602.912,1660.061C2602.902,1662.593 2602.879,1668.068 2602.879,1668.068C2602.875,1669.163 2603.517,1670.157 2604.516,1670.604C2605.515,1671.051 2606.684,1670.867 2607.497,1670.134L2626.816,1652.72C2627.397,1652.196 2627.729,1651.451 2627.73,1650.668L2627.73,1650.437C2627.73,1650.199 2627.844,1649.975 2628.036,1649.834C2639.591,1641.342 2647.097,1627.655 2647.097,1612.229C2647.097,1599.504 2641.989,1587.961 2633.713,1579.543C2633.486,1579.313 2633.453,1578.956 2633.634,1578.688L2633.633,1578.688C2633.96,1578.205 2634.125,1577.631 2634.106,1577.048L2633.994,1573.614C2633.947,1572.191 2632.828,1571.036 2631.407,1570.945L2620.817,1570.264C2614.664,1567.27 2607.755,1565.591 2600.458,1565.591C2593.127,1565.591 2586.188,1567.286 2580.014,1570.305L2570.069,1570.945C2568.648,1571.036 2567.529,1572.191 2567.482,1573.614L2567.37,1577.048C2567.351,1577.631 2567.42,1578.063 2567.731,1578.523C2567.731,1578.523 2567.743,1578.541 2567.762,1578.568C2567.86,1578.713 2567.84,1578.907 2567.716,1579.029C2559.139,1587.488 2553.819,1599.243 2553.819,1612.229C2553.819,1637.97 2574.717,1658.868 2600.458,1658.868C2600.866,1658.868 2601.272,1658.863 2601.677,1658.853Z" style="fill:rgb(15,15,15);"/>
                    </g>
                    <g transform="matrix(1,0,0,1,52.866787,13.99869)">
                        <g transform="matrix(0.989677,0,0,1.175824,25.284695,-306.568358)">
                            <path d="M2439.955,1732.148L2439.934,1713.191L2429.548,1700.261L2429.733,1695.51L2471.145,1693.268L2471.334,1732.148L2488.385,1732.148L2488.574,1693.268L2529.986,1695.51L2530.171,1700.261L2519.785,1713.191L2519.685,1802L2487.927,1826.095L2488.303,1748.816L2471.415,1748.816L2471.428,1751.33L2471.218,1751.33L2471.449,1801.621L2439.652,1784.22L2439.652,1732.148L2439.955,1732.148Z" style="fill:rgb(15,15,15);"/>
                        </g>
                    </g>
                </g>
            </g>
            <g transform="matrix(1.776142,0,0,1.776142,-3899.505261,-2506.774147)">
                <g>
                    <g transform="matrix(1,0,0,1,3515.584,1938.787)">
                        <path d="M217.897,-289.757L217.897,0L161.878,0L161.878,-116.869L74.95,-116.869L74.95,0L18.931,0L18.931,-289.757L74.95,-289.757L74.95,-172.888L161.878,-172.888L161.878,-289.757L217.897,-289.757Z" style="fill:rgb(15,15,15);"/>
                    </g>
                    <g transform="matrix(1,0,0,1,3850.33,1938.787)">
                        <path d="M202.637,-289.757L125.948,-124.982L125.948,0L69.928,0L69.928,-124.982L-6.761,-289.757L55.054,-289.757L97.938,-197.808L140.822,-289.757L202.637,-289.757Z" style="fill:rgb(15,15,15);"/>
                        <path d="M481.556,-289.757L481.556,-233.737L424.571,-233.737L424.571,0L368.358,0L368.358,-233.737L311.372,-233.737L311.372,-289.757L481.556,-289.757Z" style="fill:rgb(15,15,15);"/>
                        <path d="M688.036,-289.757L762.987,0L705.229,0L693.831,-44.043L615.597,-44.043L604.2,0L546.442,0L621.392,-289.757L688.036,-289.757ZM630.278,-100.256L679.15,-100.256L654.618,-194.717L630.278,-100.256Z" style="fill:rgb(15,15,15);"/>
                        <path d="M931.218,-289.757L931.218,-56.02L1024.134,-56.02L1024.134,0L875.199,0L875.199,-289.757L931.218,-289.757Z" style="fill:rgb(15,15,15);"/>
                        <path d="M1280.452,-289.757L1280.452,-233.737L1187.536,-233.737L1187.536,-172.888L1258.817,-172.888L1258.817,-116.869L1187.536,-116.869L1187.536,-56.02L1280.452,-56.02L1280.452,0L1131.517,0L1131.517,-289.757L1280.452,-289.757Z" style="fill:rgb(15,15,15);"/>
                    </g>
                </g>
            </g>
            <g transform="matrix(1.776142,0,0,1.776142,-3899.505261,-1879.39383)">
                <g>
                    <g transform="matrix(1,0,0,1,3515.584,1938.787)">
                        <path d="M267.929,-289.757L267.929,0L211.716,0L211.716,-145.844L152.026,-8.693L134.834,-8.693L74.95,-145.844L74.95,0L18.931,0L18.931,-289.757L73.405,-289.757L143.333,-129.232L213.454,-289.757L267.929,-289.757Z" style="fill:rgb(15,15,15);"/>
                    </g>
                    <g transform="matrix(1,0,0,1,3826.382,1938.787)">
                        <path d="M108.562,-239.533C96.586,-239.533 86.283,-235.283 77.655,-226.783C69.027,-218.155 64.712,-207.852 64.712,-195.876L64.712,-93.881C64.712,-81.905 69.027,-71.602 77.655,-62.974C86.283,-54.346 96.586,-50.031 108.562,-50.031C120.668,-50.031 130.97,-54.346 139.47,-62.974C148.098,-71.473 152.412,-81.776 152.412,-93.881L152.412,-195.876C152.412,-207.852 148.098,-218.155 139.47,-226.783C130.97,-235.283 120.668,-239.533 108.562,-239.533ZM108.562,-295.745C136.121,-295.745 159.688,-285.958 179.263,-266.383C198.709,-246.809 208.432,-223.306 208.432,-195.876L208.432,-93.881C208.432,-66.451 198.709,-42.948 179.263,-23.374C159.688,-3.799 136.121,5.988 108.562,5.988C81.132,5.988 57.629,-3.799 38.055,-23.374C18.48,-42.948 8.693,-66.451 8.693,-93.881L8.693,-195.876C8.693,-223.306 18.48,-246.809 38.055,-266.383C57.629,-285.958 81.132,-295.745 108.562,-295.745Z" style="fill:rgb(15,15,15);"/>
                        <path d="M359.089,-289.757C385.747,-289.757 408.605,-280.227 427.665,-261.168C446.724,-242.237 456.254,-219.378 456.254,-192.592L456.254,-93.881C456.254,-68.125 447.046,-46.039 428.631,-27.624C410.215,-9.208 388.065,0 362.18,0L261.924,0L261.924,-289.757L359.089,-289.757ZM318.137,-233.737L318.137,-56.02L362.18,-56.02C372.611,-56.02 381.497,-59.754 388.837,-67.224C396.307,-74.693 400.041,-83.579 400.041,-93.881L400.041,-192.592C400.041,-203.925 396.049,-213.583 388.065,-221.568C379.952,-229.681 370.293,-233.737 359.089,-233.737L318.137,-233.737Z" style="fill:rgb(15,15,15);"/>
                        <path d="M599.959,-289.757C626.617,-289.757 649.475,-280.227 668.535,-261.168C687.594,-242.237 697.124,-219.378 697.124,-192.592L697.124,-93.881C697.124,-68.125 687.916,-46.039 669.501,-27.624C651.085,-9.208 628.935,0 603.05,0L502.794,0L502.794,-289.757L599.959,-289.757ZM559.007,-233.737L559.007,-56.02L603.05,-56.02C613.481,-56.02 622.367,-59.754 629.707,-67.224C637.177,-74.693 640.911,-83.579 640.911,-93.881L640.911,-192.592C640.911,-203.925 636.919,-213.583 628.935,-221.568C620.822,-229.681 611.163,-233.737 599.959,-233.737L559.007,-233.737Z" style="fill:rgb(15,15,15);"/>
                        <rect x="743.663" y="-289.757" width="56.213" height="289.757" style="fill:rgb(15,15,15);"/>
                        <path d="M1052.914,-289.757L1052.914,0L998.633,0L917.694,-161.298L917.694,0L861.675,0L861.675,-289.757L915.956,-289.757L996.702,-128.459L996.702,-289.757L1052.914,-289.757Z" style="fill:rgb(15,15,15);"/>
                        <path d="M1204.345,5.988C1176.915,5.988 1153.412,-3.799 1133.838,-23.374C1114.263,-42.948 1104.476,-66.451 1104.476,-93.881L1104.476,-195.876C1104.476,-223.306 1114.263,-246.809 1133.838,-266.383C1153.412,-285.958 1176.915,-295.745 1204.345,-295.745C1242.593,-295.745 1272.213,-277.716 1293.204,-241.657L1268.865,-227.749L1244.525,-213.648C1234.48,-230.904 1221.087,-239.533 1204.345,-239.533C1192.369,-239.533 1182.066,-235.283 1173.438,-226.783C1164.81,-218.155 1160.495,-207.852 1160.495,-195.876L1160.495,-93.881C1160.495,-81.905 1164.81,-71.602 1173.438,-62.974C1182.066,-54.346 1192.369,-50.031 1204.345,-50.031C1207.307,-50.031 1211.042,-50.418 1215.549,-51.19C1220.829,-52.092 1225.659,-53.315 1230.037,-54.861C1242.014,-58.853 1248.002,-63.94 1248.002,-70.121L1248.002,-116.869L1191.21,-116.869L1191.21,-172.888L1304.408,-172.888L1304.408,0L1279.296,0L1263.263,-8.5C1245.62,1.159 1225.981,5.988 1204.345,5.988Z" style="fill:rgb(15,15,15);"/>
                    </g>
                </g>
            </g>
        </g>
    </g>
</svg>
